<?xml version="1.0" standalone="no"?>
<!DOCTYPE svg PUBLIC "-//W3C//DTD SVG 20010904//EN"
 "http://www.w3.org/TR/2001/REC-SVG-20010904/DTD/svg10.dtd">
<svg version="1.0" xmlns="http://www.w3.org/2000/svg"
 width="650.000000pt" height="449.000000pt" viewBox="0 0 650.000000 449.000000"
 preserveAspectRatio="xMidYMid meet">

<g transform="translate(0.000000,449.000000) scale(0.100000,-0.100000)"
fill="#000000" stroke="none">
<path d="M800 3788 c0 -7 10 -33 21 -58 11 -25 31 -73 44 -108 14 -34 31 -77
39 -95 21 -47 206 -515 206 -521 0 -3 11 -30 25 -59 13 -30 32 -76 41 -103 9
-27 24 -67 34 -89 28 -63 130 -319 130 -327 0 -4 13 -36 29 -70 15 -35 32 -74
36 -88 4 -14 18 -50 31 -80 12 -30 48 -120 80 -200 31 -80 62 -158 69 -175 7
-16 25 -61 40 -100 15 -38 33 -84 41 -101 7 -17 30 -73 49 -125 20 -52 43
-104 51 -116 l14 -23 439 0 439 0 21 45 c12 25 21 48 21 53 0 8 89 231 114
287 8 17 24 57 36 90 12 33 29 75 37 92 7 18 25 63 39 100 14 37 77 198 141
358 63 159 144 364 180 455 36 91 68 174 73 185 4 11 19 47 33 80 14 33 35 86
47 118 l21 57 883 0 c690 0 886 3 899 13 16 11 17 36 15 262 l-3 250 -1116 3
-1116 2 -16 -37 c-9 -21 -77 -193 -152 -383 -75 -190 -143 -360 -151 -378 -9
-18 -26 -61 -39 -95 -12 -34 -96 -244 -185 -467 -89 -223 -173 -433 -186 -468
-39 -105 -40 -105 -84 11 -17 45 -37 96 -45 112 -7 17 -36 91 -65 165 -28 74
-58 149 -66 166 -7 17 -48 119 -90 225 -41 107 -82 208 -89 224 -33 73 -145
367 -145 380 0 13 48 15 348 15 191 0 357 3 368 6 12 3 28 18 35 32 8 15 23
43 35 62 12 19 56 98 99 175 43 77 91 161 107 186 15 25 28 51 28 57 0 9 -234
12 -945 12 -749 0 -945 -3 -945 -12z"/>
<path d="M3529 2803 c-7 -16 -20 -46 -29 -68 -22 -48 -100 -246 -131 -330 -12
-33 -26 -65 -31 -72 -5 -7 -7 -17 -3 -23 7 -12 1554 -14 1570 -2 11 8 65 88
65 97 0 3 18 35 40 71 22 36 40 68 40 69 0 2 34 63 75 136 41 72 75 136 75
140 0 5 -370 9 -830 9 l-830 0 -11 -27z"/>
<path d="M3293 2204 c-6 -11 -26 -56 -43 -100 -17 -43 -44 -110 -59 -149 -122
-298 -231 -578 -231 -592 0 -10 202 -13 975 -13 l974 0 29 43 c16 23 44 69 62
102 66 119 100 178 173 301 21 36 35 69 32 74 -4 6 -344 10 -945 10 l-940 0
-5 23 c-3 12 -6 90 -8 172 -2 122 -4 146 -14 129z"/>
</g>
</svg>
